HIERARCHY
ROOT reference
{
  OFFSET 0 0 0
  CHANNELS 6 Xposition Yposition Zposition Zrotation Xrotation Yrotation
  JOINT Hips
  {
    OFFSET 3.65668 79.787 140.355
    CHANNELS 6 Xposition Yposition Zposition Zrotation Xrotation Yrotation
    JOINT Spine
    {
      OFFSET 0 7.31558 0
      CHANNELS 6 Xposition Yposition Zposition Zrotation Xrotation Yrotation
      JOINT Spine1
      {
        OFFSET 0 21.7428 0
        CHANNELS 6 Xposition Yposition Zposition Zrotation Xrotation Yrotation
        JOINT Neck
        {
          OFFSET 0 21.6535 1.9685
          CHANNELS 6 Xposition Yposition Zposition Zrotation Xrotation Yrotation
          JOINT Head
          {
            OFFSET 0 12.49 -1.78429
            CHANNELS 6 Xposition Yposition Zposition Zrotation Xrotation Yrotation
            End Site
            {
              OFFSET 0 22.3036 0
            }
          }
        }
        JOINT LeftShoulder
        {
          OFFSET 3.56546 21.4407 -0.045508
          CHANNELS 6 Xposition Yposition Zposition Zrotation Xrotation Yrotation
          JOINT LeftArm
          {
            OFFSET 5.86532 0 0
            CHANNELS 6 Xposition Yposition Zposition Zrotation Xrotation Yrotation
            JOINT LeftForeArm
            {
              OFFSET 30.0831 0 0
              CHANNELS 6 Xposition Yposition Zposition Zrotation Xrotation Yrotation
              JOINT LeftHand
              {
                OFFSET 21.3133 0 0
                CHANNELS 6 Xposition Yposition Zposition Zrotation Xrotation Yrotation
                End Site
                {
                  OFFSET 13.3822 0 0
                }
              }
            }
          }
        }
        JOINT RightShoulder
        {
          OFFSET -3.55605 21.4407 -0.045508
          CHANNELS 6 Xposition Yposition Zposition Zrotation Xrotation Yrotation
          JOINT RightArm
          {
            OFFSET -5.86532 0 0
            CHANNELS 6 Xposition Yposition Zposition Zrotation Xrotation Yrotation
            JOINT RightForeArm
            {
              OFFSET -30.0831 0 0
              CHANNELS 6 Xposition Yposition Zposition Zrotation Xrotation Yrotation
              JOINT RightHand
              {
                OFFSET -21.3133 0 0
                CHANNELS 6 Xposition Yposition Zposition Zrotation Xrotation Yrotation
                End Site
                {
                  OFFSET -13.3822 0 0
                }
              }
            }
          }
        }
      }
    }
    JOINT LeftUpLeg
    {
      OFFSET 8.92144 0 0
      CHANNELS 6 Xposition Yposition Zposition Zrotation Xrotation Yrotation
      JOINT LeftLeg
      {
        OFFSET 0 -39.6329 0
        CHANNELS 6 Xposition Yposition Zposition Zrotation Xrotation Yrotation
        JOINT LeftFoot
        {
          OFFSET 0 -38.0584 0
          CHANNELS 6 Xposition Yposition Zposition Zrotation Xrotation Yrotation
          JOINT LeftToeBase
          {
            OFFSET 0 -5.79894 13.3822
            CHANNELS 6 Xposition Yposition Zposition Zrotation Xrotation Yrotation
            End Site
            {
              OFFSET 0 0 3.56858
            }
          }
        }
      }
    }
    JOINT RightUpLeg
    {
      OFFSET -8.92144 0 0
      CHANNELS 6 Xposition Yposition Zposition Zrotation Xrotation Yrotation
      JOINT RightLeg
      {
        OFFSET 0 -39.6329 0
        CHANNELS 6 Xposition Yposition Zposition Zrotation Xrotation Yrotation
        JOINT RightFoot
        {
          OFFSET 0 -38.0584 0
          CHANNELS 6 Xposition Yposition Zposition Zrotation Xrotation Yrotation
          JOINT RightToeBase
          {
            OFFSET 0 -5.79894 13.3822
            CHANNELS 6 Xposition Yposition Zposition Zrotation Xrotation Yrotation
            End Site
            {
              OFFSET 0 0 3.56858
            }
          }
        }
      }
    }
  }
}
MOTION
Frames:	4
Frame Time:	0.004
0 0 0 0 0 -0 -23.5325 78.727 -146.861 3.03274 4.38746 25.285 -7.10543e-015 7.31558 2.84217e-014 2.04265 17.3719 -1.29428 -7.10543e-015 21.7428 0 8.04009 27.1298 -2.92531 -7.10543e-015 21.6535 1.9685 -5.621 -16.5738 -7.56651 3.55271e-015 12.49 -1.78429 -0.761254 -8.78408 -6.38231 3.56546 21.4407 -0.045508 3.19918 5.4023 -28.0071 5.86532 0 -2.84217e-014 -6.33726 39.0428 -13.3732 30.0831 2.84217e-014 0 34.3796 -24.6111 -62.2965 21.3133 0 3.55271e-015 2.43379 -3.74391 -0.870243 -3.55605 21.4407 -0.045508 3.23487 9.98613 16.8509 -5.86532 -7.10543e-015 0 24.6064 20.863 -3.01143 -30.0831 -1.42109e-014 0 -33.8004 -29.4435 56.2871 -21.3133 -7.10543e-015 3.55271e-015 -0.67727 -12.0248 12.3304 8.92144 -1.42109e-014 2.84217e-014 10.1389 -15.8288 3.4466 0 -39.6329 -1.42109e-014 3.10344 67.8288 -3.33741 0 -38.0584 -1.42109e-014 -10.6673 7.50408 -4.08435 1.42109e-014 -5.79894 13.3822 0 0 -3.18055e-015 -8.92144 0 0 -16.2995 -16.7603 -24.7718 7.10543e-015 -39.6329 1.42109e-014 7.22168 14.2107 -7.32429 0 -38.0584 0 -2.99052 -1.1977 -15.2693 0 -5.79894 13.3822 -3.97569e-016 -2.38542e-015 -3.18055e-015 
0 0 0 0 0 -0 -23.5384 78.83 -146.48 3.05906 4.29289 24.9606 -7.10543e-015 7.31558 2.84217e-014 1.95179 17.345 -1.22474 0 21.7428 0 7.8904 27.1608 -2.83604 7.10543e-015 21.6535 1.9685 -5.42697 -16.4481 -7.42712 7.10543e-015 12.49 -1.78429 -0.871323 -8.87421 -6.32493 3.56546 21.4407 -0.045508 3.40776 5.48374 -27.9916 5.86532 -1.42109e-014 0 -6.46413 38.8197 -13.3124 30.0831 0 0 34.1547 -24.6799 -62.3581 21.3133 -1.42109e-014 0 2.65074 -3.94736 -0.833464 -3.55605 21.4407 -0.045508 3.2061 9.89888 17.1525 -5.86532 -7.10543e-015 0 25.0814 21.1708 -3.33812 -30.0831 -1.42109e-014 0 -34.5051 -29.5458 55.7056 -21.3133 0 0 -0.425011 -11.932 12.5423 8.92144 0 0 10.0697 -16.4105 3.3272 0 -39.6329 -2.84217e-014 1.81604 68.7513 -1.94594 -1.42109e-014 -38.0584 0 -10.7626 7.23962 -4.19164 0 -5.79894 13.3822 -6.36111e-015 -3.18055e-015 1.59028e-015 -8.92144 1.42109e-014 2.84217e-014 -15.9282 -16.4055 -24.3856 7.10543e-015 -39.6329 0 7.12081 13.8625 -7.32158 -7.10543e-015 -38.0584 0 -3.03533 -1.15757 -15.1906 0 -5.79894 13.3822 3.97569e-016 -7.95139e-016 -3.18055e-015 
0 0 0 0 0 -0 -23.5343 78.9333 -146.114 3.07307 4.24939 24.6477 0 7.31558 0 1.76341 17.2212 -1.18429 0 21.7428 2.84217e-014 8.12334 27.3407 -2.89637 7.10543e-015 21.6535 1.9685 -5.82319 -16.3103 -7.46976 0 12.49 -1.78429 -0.59069 -9.20912 -6.20056 3.56546 21.4407 -0.045508 3.11754 5.3831 -27.7413 5.86532 1.42109e-014 0 -6.36075 38.834 -13.3646 30.0831 -2.84217e-014 -1.42109e-014 33.8163 -24.7811 -62.4399 21.3133 0 0 3.12485 -4.25365 -0.672634 -3.55605 21.4407 -0.045508 2.94004 9.89376 17.2692 -5.86532 7.10543e-015 0 25.2516 21.1286 -3.29004 -30.0831 0 1.42109e-014 -34.832 -29.4157 55.5588 -21.3133 -7.10543e-015 3.55271e-015 -0.491298 -11.6604 12.352 8.92144 0 0 9.90321 -17.1509 3.27041 0 -39.6329 0 1.01923 69.7273 -0.666036 0 -38.0584 0 -11.0136 7.36319 -4.60051 0 -5.79894 13.3822 -6.36111e-015 6.36111e-015 -4.77083e-015 -8.92144 -1.42109e-014 0 -15.5638 -16.1495 -24.2268 -7.10543e-015 -39.6329 0 6.88156 13.585 -7.40589 -7.10543e-015 -38.0584 -1.42109e-014 -3.01457 -1.11681 -14.7494 0 -5.79894 13.3822 -1.98785e-016 0 3.18055e-015 
0 0 0 0 0 -0 -23.546 79.0304 -145.733 3.1172 4.15819 24.3641 1.42109e-014 7.31558 0 1.56513 17.2181 -1.10512 0 21.7428 0 8.23735 27.3579 -2.87636 7.10543e-015 21.6535 1.9685 -5.81635 -16.5193 -7.32575 0 12.49 -1.78429 -0.801619 -8.83042 -6.08619 3.56546 21.4407 -0.045508 3.13451 5.39994 -27.6311 5.86532 0 2.84217e-014 -6.3886 38.7822 -13.4059 30.0831 0 -1.42109e-014 33.5466 -24.9645 -62.5356 21.3133 1.42109e-014 -3.55271e-015 3.42484 -4.59455 -0.479588 -3.55605 21.4407 -0.045508 2.89588 9.94834 17.2849 -5.86532 -7.10543e-015 0 25.2812 20.6501 -3.34175 -30.0831 0 0 -34.6434 -28.9992 56.0119 -21.3133 -7.10543e-015 1.06581e-014 -1.3905 -11.2095 11.8235 8.92144 -1.42109e-014 -2.84217e-014 9.82467 -17.7981 3.28654 1.42109e-014 -39.6329 0 -0.0175961 70.5833 0.634736 0 -38.0584 1.42109e-014 -11.1464 7.39157 -4.99135 0 -5.79894 13.3822 -3.18055e-015 3.18055e-015 1.59028e-015 -8.92144 0 2.84217e-014 -15.3079 -15.7607 -23.765 -7.10543e-015 -39.6329 1.42109e-014 6.97555 13.3101 -7.10231 -7.10543e-015 -38.0584 1.42109e-014 -3.06174 -1.12975 -15.2488 0 -5.79894 13.3822 -1.98785e-016 -7.95139e-016 -0 
